<svg width="280" height="88" viewBox="0 0 280 88" fill="none" xmlns="http://www.w3.org/2000/svg">
<rect width="280" height="88" rx="8" fill="white"/>
<g clip-path="url(#clip0_1520_3983)">
<path d="M17.08 39V27.825H21.79C22.53 27.825 23.16 27.955 23.68 28.215C24.21 28.465 24.615 28.825 24.895 29.295C25.185 29.755 25.33 30.315 25.33 30.975C25.33 31.485 25.19 31.965 24.91 32.415C24.64 32.855 24.205 33.22 23.605 33.51V32.565C24.155 32.775 24.59 33.035 24.91 33.345C25.23 33.655 25.455 34 25.585 34.38C25.715 34.76 25.78 35.16 25.78 35.58C25.78 36.65 25.425 37.49 24.715 38.1C24.015 38.7 23.04 39 21.79 39H17.08ZM19.12 37.2H22C22.53 37.2 22.95 37.055 23.26 36.765C23.58 36.465 23.74 36.07 23.74 35.58C23.74 35.09 23.58 34.695 23.26 34.395C22.95 34.095 22.53 33.945 22 33.945H19.12V37.2ZM19.12 32.16H21.895C22.315 32.16 22.65 32.04 22.9 31.8C23.15 31.55 23.275 31.23 23.275 30.84C23.275 30.45 23.15 30.14 22.9 29.91C22.65 29.68 22.315 29.565 21.895 29.565H19.12V32.16ZM30.1961 39.18C29.5661 39.18 29.0161 39.04 28.5461 38.76C28.0861 38.48 27.7311 38.09 27.4811 37.59C27.2411 37.09 27.1211 36.505 27.1211 35.835V30.84H29.0861V35.67C29.0861 36.01 29.1511 36.31 29.2811 36.57C29.4211 36.82 29.6161 37.02 29.8661 37.17C30.1261 37.31 30.4161 37.38 30.7361 37.38C31.0561 37.38 31.3411 37.31 31.5911 37.17C31.8411 37.02 32.0361 36.815 32.1761 36.555C32.3161 36.295 32.3861 35.985 32.3861 35.625V30.84H34.3511V39H32.4911V37.395L32.6561 37.68C32.4661 38.18 32.1511 38.555 31.7111 38.805C31.2811 39.055 30.7761 39.18 30.1961 39.18ZM36.1777 39V30.84H38.1427V39H36.1777ZM36.1777 29.925V27.825H38.1427V29.925H36.1777ZM39.957 39V27.645H41.922V39H39.957ZM47.5313 39.18C46.7413 39.18 46.0363 38.995 45.4163 38.625C44.7963 38.245 44.3063 37.73 43.9463 37.08C43.5863 36.43 43.4063 35.71 43.4063 34.92C43.4063 34.12 43.5863 33.4 43.9463 32.76C44.3063 32.12 44.7963 31.61 45.4163 31.23C46.0463 30.85 46.7463 30.66 47.5163 30.66C48.1363 30.66 48.6863 30.785 49.1663 31.035C49.6563 31.275 50.0413 31.615 50.3213 32.055L50.0213 32.46V27.645H51.9863V39H50.1263V37.425L50.3363 37.815C50.0563 38.255 49.6663 38.595 49.1663 38.835C48.6663 39.065 48.1213 39.18 47.5313 39.18ZM47.7413 37.38C48.1913 37.38 48.5863 37.275 48.9263 37.065C49.2663 36.855 49.5313 36.565 49.7213 36.195C49.9213 35.825 50.0213 35.4 50.0213 34.92C50.0213 34.45 49.9213 34.03 49.7213 33.66C49.5313 33.28 49.2663 32.985 48.9263 32.775C48.5863 32.565 48.1913 32.46 47.7413 32.46C47.3013 32.46 46.9063 32.57 46.5563 32.79C46.2063 33 45.9313 33.29 45.7313 33.66C45.5413 34.02 45.4463 34.44 45.4463 34.92C45.4463 35.4 45.5413 35.825 45.7313 36.195C45.9313 36.565 46.2063 36.855 46.5563 37.065C46.9063 37.275 47.3013 37.38 47.7413 37.38ZM60.9504 39.18C60.0904 39.18 59.3254 39 58.6554 38.64C57.9954 38.28 57.4754 37.785 57.0954 37.155C56.7154 36.525 56.5254 35.81 56.5254 35.01V27.825H58.5654V34.905C58.5654 35.365 58.6654 35.78 58.8654 36.15C59.0754 36.52 59.3604 36.81 59.7204 37.02C60.0804 37.22 60.4904 37.32 60.9504 37.32C61.4204 37.32 61.8304 37.22 62.1804 37.02C62.5404 36.81 62.8204 36.52 63.0204 36.15C63.2304 35.78 63.3354 35.365 63.3354 34.905V27.825H65.3754V35.01C65.3754 35.81 65.1854 36.525 64.8054 37.155C64.4254 37.785 63.9004 38.28 63.2304 38.64C62.5704 39 61.8104 39.18 60.9504 39.18ZM67.412 39V27.825H69.452V39H67.412ZM75.0475 39V32.595H73.6075V30.84H75.0475V30.57C75.0475 29.95 75.1725 29.425 75.4225 28.995C75.6825 28.555 76.0425 28.22 76.5025 27.99C76.9625 27.76 77.5075 27.645 78.1375 27.645C78.2575 27.645 78.3875 27.655 78.5275 27.675C78.6775 27.685 78.8025 27.7 78.9025 27.72V29.415C78.8025 29.395 78.7075 29.385 78.6175 29.385C78.5375 29.375 78.4625 29.37 78.3925 29.37C77.9525 29.37 77.6125 29.47 77.3725 29.67C77.1325 29.86 77.0125 30.16 77.0125 30.57V30.84H78.8275V32.595H77.0125V39H75.0475ZM83.9519 39.18C83.1519 39.18 82.4219 38.995 81.7619 38.625C81.1119 38.255 80.5919 37.75 80.2019 37.11C79.8219 36.47 79.6319 35.74 79.6319 34.92C79.6319 34.1 79.8219 33.37 80.2019 32.73C80.5919 32.09 81.1119 31.585 81.7619 31.215C82.4119 30.845 83.1419 30.66 83.9519 30.66C84.7519 30.66 85.4769 30.845 86.1269 31.215C86.7769 31.585 87.2919 32.09 87.6719 32.73C88.0619 33.36 88.2569 34.09 88.2569 34.92C88.2569 35.74 88.0619 36.47 87.6719 37.11C87.2819 37.75 86.7619 38.255 86.1119 38.625C85.4619 38.995 84.7419 39.18 83.9519 39.18ZM83.9519 37.38C84.3919 37.38 84.7769 37.275 85.1069 37.065C85.4469 36.855 85.7119 36.565 85.9019 36.195C86.1019 35.815 86.2019 35.39 86.2019 34.92C86.2019 34.44 86.1019 34.02 85.9019 33.66C85.7119 33.29 85.4469 33 85.1069 32.79C84.7769 32.57 84.3919 32.46 83.9519 32.46C83.5019 32.46 83.1069 32.57 82.7669 32.79C82.4269 33 82.1569 33.29 81.9569 33.66C81.7669 34.02 81.6719 34.44 81.6719 34.92C81.6719 35.39 81.7669 35.815 81.9569 36.195C82.1569 36.565 82.4269 36.855 82.7669 37.065C83.1069 37.275 83.5019 37.38 83.9519 37.38ZM89.747 39V30.84H91.592V32.655L91.442 32.385C91.632 31.775 91.927 31.35 92.327 31.11C92.737 30.87 93.227 30.75 93.797 30.75H94.277V32.49H93.572C93.012 32.49 92.562 32.665 92.222 33.015C91.882 33.355 91.712 33.835 91.712 34.455V39H89.747ZM102.013 39.18C101.213 39.18 100.483 38.995 99.8234 38.625C99.1734 38.255 98.6534 37.75 98.2634 37.11C97.8834 36.47 97.6934 35.74 97.6934 34.92C97.6934 34.1 97.8834 33.37 98.2634 32.73C98.6534 32.09 99.1734 31.585 99.8234 31.215C100.473 30.845 101.203 30.66 102.013 30.66C102.813 30.66 103.538 30.845 104.188 31.215C104.838 31.585 105.353 32.09 105.733 32.73C106.123 33.36 106.318 34.09 106.318 34.92C106.318 35.74 106.123 36.47 105.733 37.11C105.343 37.75 104.823 38.255 104.173 38.625C103.523 38.995 102.803 39.18 102.013 39.18ZM102.013 37.38C102.453 37.38 102.838 37.275 103.168 37.065C103.508 36.855 103.773 36.565 103.963 36.195C104.163 35.815 104.263 35.39 104.263 34.92C104.263 34.44 104.163 34.02 103.963 33.66C103.773 33.29 103.508 33 103.168 32.79C102.838 32.57 102.453 32.46 102.013 32.46C101.563 32.46 101.168 32.57 100.828 32.79C100.488 33 100.218 33.29 100.018 33.66C99.8284 34.02 99.7334 34.44 99.7334 34.92C99.7334 35.39 99.8284 35.815 100.018 36.195C100.218 36.565 100.488 36.855 100.828 37.065C101.168 37.275 101.563 37.38 102.013 37.38ZM107.809 39V30.84H109.654V32.445L109.504 32.16C109.694 31.67 110.004 31.3 110.434 31.05C110.874 30.79 111.384 30.66 111.964 30.66C112.564 30.66 113.094 30.79 113.554 31.05C114.024 31.31 114.389 31.675 114.649 32.145C114.909 32.605 115.039 33.14 115.039 33.75V39H113.074V34.215C113.074 33.855 113.004 33.545 112.864 33.285C112.724 33.025 112.529 32.825 112.279 32.685C112.039 32.535 111.754 32.46 111.424 32.46C111.104 32.46 110.819 32.535 110.569 32.685C110.319 32.825 110.124 33.025 109.984 33.285C109.844 33.545 109.774 33.855 109.774 34.215V39H107.809ZM121.155 39.18C120.565 39.18 120.02 39.065 119.52 38.835C119.03 38.595 118.64 38.255 118.35 37.815L118.545 37.425V39H116.7V27.645H118.665V32.46L118.365 32.055C118.645 31.615 119.025 31.275 119.505 31.035C119.985 30.785 120.54 30.66 121.17 30.66C121.94 30.66 122.635 30.85 123.255 31.23C123.875 31.61 124.365 32.12 124.725 32.76C125.095 33.4 125.28 34.12 125.28 34.92C125.28 35.71 125.1 36.43 124.74 37.08C124.38 37.73 123.89 38.245 123.27 38.625C122.65 38.995 121.945 39.18 121.155 39.18ZM120.93 37.38C121.38 37.38 121.78 37.275 122.13 37.065C122.48 36.855 122.75 36.565 122.94 36.195C123.14 35.825 123.24 35.4 123.24 34.92C123.24 34.44 123.14 34.02 122.94 33.66C122.75 33.29 122.48 33 122.13 32.79C121.78 32.57 121.38 32.46 120.93 32.46C120.5 32.46 120.11 32.565 119.76 32.775C119.42 32.985 119.15 33.28 118.95 33.66C118.76 34.03 118.665 34.45 118.665 34.92C118.665 35.4 118.76 35.825 118.95 36.195C119.15 36.565 119.42 36.855 119.76 37.065C120.11 37.275 120.5 37.38 120.93 37.38ZM130.768 39.18C129.968 39.18 129.238 38.995 128.578 38.625C127.928 38.255 127.408 37.75 127.018 37.11C126.638 36.47 126.448 35.74 126.448 34.92C126.448 34.1 126.638 33.37 127.018 32.73C127.408 32.09 127.928 31.585 128.578 31.215C129.228 30.845 129.958 30.66 130.768 30.66C131.568 30.66 132.293 30.845 132.943 31.215C133.593 31.585 134.108 32.09 134.488 32.73C134.878 33.36 135.073 34.09 135.073 34.92C135.073 35.74 134.878 36.47 134.488 37.11C134.098 37.75 133.578 38.255 132.928 38.625C132.278 38.995 131.558 39.18 130.768 39.18ZM130.768 37.38C131.208 37.38 131.593 37.275 131.923 37.065C132.263 36.855 132.528 36.565 132.718 36.195C132.918 35.815 133.018 35.39 133.018 34.92C133.018 34.44 132.918 34.02 132.718 33.66C132.528 33.29 132.263 33 131.923 32.79C131.593 32.57 131.208 32.46 130.768 32.46C130.318 32.46 129.923 32.57 129.583 32.79C129.243 33 128.973 33.29 128.773 33.66C128.583 34.02 128.488 34.44 128.488 34.92C128.488 35.39 128.583 35.815 128.773 36.195C128.973 36.565 129.243 36.855 129.583 37.065C129.923 37.275 130.318 37.38 130.768 37.38ZM139.038 39.18C138.468 39.18 137.973 39.085 137.553 38.895C137.133 38.705 136.808 38.435 136.578 38.085C136.348 37.725 136.233 37.31 136.233 36.84C136.233 36.39 136.333 35.99 136.533 35.64C136.733 35.28 137.043 34.98 137.463 34.74C137.883 34.5 138.413 34.33 139.053 34.23L141.723 33.795V35.295L139.428 35.685C139.038 35.755 138.748 35.88 138.558 36.06C138.368 36.24 138.273 36.475 138.273 36.765C138.273 37.045 138.378 37.27 138.588 37.44C138.808 37.6 139.078 37.68 139.398 37.68C139.808 37.68 140.168 37.595 140.478 37.425C140.798 37.245 141.043 37 141.213 36.69C141.393 36.38 141.483 36.04 141.483 35.67V33.57C141.483 33.22 141.343 32.93 141.063 32.7C140.793 32.46 140.433 32.34 139.983 32.34C139.563 32.34 139.188 32.455 138.858 32.685C138.538 32.905 138.303 33.2 138.153 33.57L136.548 32.79C136.708 32.36 136.958 31.99 137.298 31.68C137.648 31.36 138.058 31.11 138.528 30.93C138.998 30.75 139.508 30.66 140.058 30.66C140.728 30.66 141.318 30.785 141.828 31.035C142.338 31.275 142.733 31.615 143.013 32.055C143.303 32.485 143.448 32.99 143.448 33.57V39H141.588V37.605L142.008 37.575C141.798 37.925 141.548 38.22 141.258 38.46C140.968 38.69 140.638 38.87 140.268 39C139.898 39.12 139.488 39.18 139.038 39.18ZM145.265 39V30.84H147.11V32.655L146.96 32.385C147.15 31.775 147.445 31.35 147.845 31.11C148.255 30.87 148.745 30.75 149.315 30.75H149.795V32.49H149.09C148.53 32.49 148.08 32.665 147.74 33.015C147.4 33.355 147.23 33.835 147.23 34.455V39H145.265ZM154.67 39.18C153.88 39.18 153.175 38.995 152.555 38.625C151.935 38.245 151.445 37.73 151.085 37.08C150.725 36.43 150.545 35.71 150.545 34.92C150.545 34.12 150.725 33.4 151.085 32.76C151.445 32.12 151.935 31.61 152.555 31.23C153.185 30.85 153.885 30.66 154.655 30.66C155.275 30.66 155.825 30.785 156.305 31.035C156.795 31.275 157.18 31.615 157.46 32.055L157.16 32.46V27.645H159.125V39H157.265V37.425L157.475 37.815C157.195 38.255 156.805 38.595 156.305 38.835C155.805 39.065 155.26 39.18 154.67 39.18ZM154.88 37.38C155.33 37.38 155.725 37.275 156.065 37.065C156.405 36.855 156.67 36.565 156.86 36.195C157.06 35.825 157.16 35.4 157.16 34.92C157.16 34.45 157.06 34.03 156.86 33.66C156.67 33.28 156.405 32.985 156.065 32.775C155.725 32.565 155.33 32.46 154.88 32.46C154.44 32.46 154.045 32.57 153.695 32.79C153.345 33 153.07 33.29 152.87 33.66C152.68 34.02 152.585 34.44 152.585 34.92C152.585 35.4 152.68 35.825 152.87 36.195C153.07 36.565 153.345 36.855 153.695 37.065C154.045 37.275 154.44 37.38 154.88 37.38ZM160.953 39V30.84H162.918V39H160.953ZM160.953 29.925V27.825H162.918V29.925H160.953ZM164.732 39V30.84H166.577V32.445L166.427 32.16C166.617 31.67 166.927 31.3 167.357 31.05C167.797 30.79 168.307 30.66 168.887 30.66C169.487 30.66 170.017 30.79 170.477 31.05C170.947 31.31 171.312 31.675 171.572 32.145C171.832 32.605 171.962 33.14 171.962 33.75V39H169.997V34.215C169.997 33.855 169.927 33.545 169.787 33.285C169.647 33.025 169.452 32.825 169.202 32.685C168.962 32.535 168.677 32.46 168.347 32.46C168.027 32.46 167.742 32.535 167.492 32.685C167.242 32.825 167.047 33.025 166.907 33.285C166.767 33.545 166.697 33.855 166.697 34.215V39H164.732ZM177.584 42.3C176.974 42.3 176.409 42.2 175.889 42C175.369 41.8 174.919 41.52 174.539 41.16C174.169 40.81 173.899 40.395 173.729 39.915L175.559 39.225C175.679 39.605 175.914 39.91 176.264 40.14C176.624 40.38 177.064 40.5 177.584 40.5C177.984 40.5 178.334 40.425 178.634 40.275C178.944 40.125 179.184 39.905 179.354 39.615C179.524 39.335 179.609 38.995 179.609 38.595V36.735L179.984 37.185C179.704 37.675 179.329 38.045 178.859 38.295C178.389 38.545 177.854 38.67 177.254 38.67C176.494 38.67 175.814 38.495 175.214 38.145C174.614 37.795 174.144 37.315 173.804 36.705C173.464 36.095 173.294 35.41 173.294 34.65C173.294 33.88 173.464 33.195 173.804 32.595C174.144 31.995 174.609 31.525 175.199 31.185C175.789 30.835 176.459 30.66 177.209 30.66C177.819 30.66 178.354 30.79 178.814 31.05C179.284 31.3 179.674 31.665 179.984 32.145L179.714 32.64V30.84H181.574V38.595C181.574 39.305 181.399 39.94 181.049 40.5C180.709 41.06 180.239 41.5 179.639 41.82C179.049 42.14 178.364 42.3 177.584 42.3ZM177.494 36.855C177.914 36.855 178.279 36.765 178.589 36.585C178.909 36.395 179.159 36.135 179.339 35.805C179.519 35.475 179.609 35.095 179.609 34.665C179.609 34.245 179.514 33.87 179.324 33.54C179.144 33.2 178.894 32.935 178.574 32.745C178.264 32.555 177.904 32.46 177.494 32.46C177.084 32.46 176.714 32.555 176.384 32.745C176.054 32.935 175.794 33.2 175.604 33.54C175.424 33.87 175.334 34.245 175.334 34.665C175.334 35.085 175.424 35.46 175.604 35.79C175.794 36.12 176.049 36.38 176.369 36.57C176.699 36.76 177.074 36.855 177.494 36.855ZM187.02 39V32.595H185.58V30.84H187.02V30.57C187.02 29.95 187.145 29.425 187.395 28.995C187.655 28.555 188.015 28.22 188.475 27.99C188.935 27.76 189.48 27.645 190.11 27.645C190.23 27.645 190.36 27.655 190.5 27.675C190.65 27.685 190.775 27.7 190.875 27.72V29.415C190.775 29.395 190.68 29.385 190.59 29.385C190.51 29.375 190.435 29.37 190.365 29.37C189.925 29.37 189.585 29.47 189.345 29.67C189.105 29.86 188.985 30.16 188.985 30.57V30.84H190.8V32.595H188.985V39H187.02ZM192.169 39V27.645H194.134V39H192.169ZM199.938 39.18C199.138 39.18 198.408 38.995 197.748 38.625C197.098 38.255 196.578 37.75 196.188 37.11C195.808 36.47 195.618 35.74 195.618 34.92C195.618 34.1 195.808 33.37 196.188 32.73C196.578 32.09 197.098 31.585 197.748 31.215C198.398 30.845 199.128 30.66 199.938 30.66C200.738 30.66 201.463 30.845 202.113 31.215C202.763 31.585 203.278 32.09 203.658 32.73C204.048 33.36 204.243 34.09 204.243 34.92C204.243 35.74 204.048 36.47 203.658 37.11C203.268 37.75 202.748 38.255 202.098 38.625C201.448 38.995 200.728 39.18 199.938 39.18ZM199.938 37.38C200.378 37.38 200.763 37.275 201.093 37.065C201.433 36.855 201.698 36.565 201.888 36.195C202.088 35.815 202.188 35.39 202.188 34.92C202.188 34.44 202.088 34.02 201.888 33.66C201.698 33.29 201.433 33 201.093 32.79C200.763 32.57 200.378 32.46 199.938 32.46C199.488 32.46 199.093 32.57 198.753 32.79C198.413 33 198.143 33.29 197.943 33.66C197.753 34.02 197.658 34.44 197.658 34.92C197.658 35.39 197.753 35.815 197.943 36.195C198.143 36.565 198.413 36.855 198.753 37.065C199.093 37.275 199.488 37.38 199.938 37.38ZM207.642 39L204.837 30.84H206.907L208.962 37.035L208.242 37.02L210.432 30.84H212.172L214.347 37.02L213.627 37.035L215.682 30.84H217.752L214.947 39H213.192L210.972 32.535H211.632L209.382 39H207.642Z" fill="#000112"/>
<path d="M20.248 62.144C19.536 62.144 18.912 61.952 18.376 61.568C17.84 61.184 17.42 60.644 17.116 59.948C16.82 59.252 16.672 58.444 16.672 57.524C16.672 56.596 16.82 55.788 17.116 55.1C17.412 54.412 17.828 53.876 18.364 53.492C18.9 53.108 19.524 52.916 20.236 52.916C20.964 52.916 21.592 53.108 22.12 53.492C22.656 53.876 23.076 54.416 23.38 55.112C23.684 55.8 23.836 56.604 23.836 57.524C23.836 58.444 23.684 59.252 23.38 59.948C23.084 60.636 22.668 61.176 22.132 61.568C21.596 61.952 20.968 62.144 20.248 62.144ZM20.26 60.656C20.668 60.656 21.016 60.532 21.304 60.284C21.592 60.028 21.812 59.668 21.964 59.204C22.124 58.732 22.204 58.172 22.204 57.524C22.204 56.876 22.124 56.32 21.964 55.856C21.812 55.384 21.588 55.024 21.292 54.776C21.004 54.528 20.652 54.404 20.236 54.404C19.836 54.404 19.492 54.528 19.204 54.776C18.916 55.024 18.692 55.384 18.532 55.856C18.38 56.32 18.304 56.876 18.304 57.524C18.304 58.164 18.38 58.72 18.532 59.192C18.692 59.656 18.916 60.016 19.204 60.272C19.5 60.528 19.852 60.656 20.26 60.656ZM30.5529 62.144C29.9129 62.144 29.3289 61.996 28.8009 61.7C28.2809 61.404 27.8649 61 27.5529 60.488C27.2489 59.976 27.0969 59.392 27.0969 58.736C27.0969 58.08 27.2489 57.496 27.5529 56.984C27.8649 56.472 28.2809 56.068 28.8009 55.772C29.3209 55.476 29.9049 55.328 30.5529 55.328C31.1929 55.328 31.7729 55.476 32.2929 55.772C32.8129 56.068 33.2249 56.472 33.5289 56.984C33.8409 57.488 33.9969 58.072 33.9969 58.736C33.9969 59.392 33.8409 59.976 33.5289 60.488C33.2169 61 32.8009 61.404 32.2809 61.7C31.7609 61.996 31.1849 62.144 30.5529 62.144ZM30.5529 60.704C30.9049 60.704 31.2129 60.62 31.4769 60.452C31.7489 60.284 31.9609 60.052 32.1129 59.756C32.2729 59.452 32.3529 59.112 32.3529 58.736C32.3529 58.352 32.2729 58.016 32.1129 57.728C31.9609 57.432 31.7489 57.2 31.4769 57.032C31.2129 56.856 30.9049 56.768 30.5529 56.768C30.1929 56.768 29.8769 56.856 29.6049 57.032C29.3329 57.2 29.1169 57.432 28.9569 57.728C28.8049 58.016 28.7289 58.352 28.7289 58.736C28.7289 59.112 28.8049 59.452 28.9569 59.756C29.1169 60.052 29.3329 60.284 29.6049 60.452C29.8769 60.62 30.1929 60.704 30.5529 60.704ZM35.8044 62V56.876H34.6524V55.472H35.8044V55.256C35.8044 54.76 35.9044 54.34 36.1044 53.996C36.3124 53.644 36.6004 53.376 36.9684 53.192C37.3364 53.008 37.7724 52.916 38.2764 52.916C38.3724 52.916 38.4764 52.924 38.5884 52.94C38.7084 52.948 38.8084 52.96 38.8884 52.976V54.332C38.8084 54.316 38.7324 54.308 38.6604 54.308C38.5964 54.3 38.5364 54.296 38.4804 54.296C38.1284 54.296 37.8564 54.376 37.6644 54.536C37.4724 54.688 37.3764 54.928 37.3764 55.256V55.472H38.8284V56.876H37.3764V62H35.8044ZM44.8402 62.144C44.3522 62.144 43.8882 62.056 43.4482 61.88C43.0162 61.696 42.6442 61.44 42.3322 61.112C42.0282 60.776 41.8202 60.38 41.7082 59.924L43.1362 59.42C43.2802 59.828 43.5002 60.14 43.7962 60.356C44.0922 60.564 44.4402 60.668 44.8402 60.668C45.1602 60.668 45.4362 60.608 45.6682 60.488C45.9082 60.368 46.0962 60.196 46.2322 59.972C46.3682 59.74 46.4362 59.468 46.4362 59.156C46.4362 58.844 46.3682 58.58 46.2322 58.364C46.1042 58.14 45.9202 57.968 45.6802 57.848C45.4402 57.728 45.1562 57.668 44.8282 57.668C44.6762 57.668 44.5162 57.684 44.3482 57.716C44.1882 57.748 44.0442 57.796 43.9162 57.86L43.5442 57.08L45.8602 54.44H42.2122V53.06H47.6962V54.344L45.3682 57.068L45.3922 56.456C45.9282 56.464 46.3962 56.58 46.7962 56.804C47.1962 57.028 47.5082 57.336 47.7322 57.728C47.9562 58.12 48.0682 58.58 48.0682 59.108C48.0682 59.684 47.9282 60.204 47.6482 60.668C47.3682 61.124 46.9842 61.484 46.4962 61.748C46.0082 62.012 45.4562 62.144 44.8402 62.144ZM54.009 62.144C53.313 62.144 52.705 61.98 52.185 61.652C51.673 61.316 51.321 60.864 51.129 60.296L52.305 59.732C52.473 60.1 52.705 60.388 53.001 60.596C53.305 60.804 53.641 60.908 54.009 60.908C54.297 60.908 54.525 60.844 54.693 60.716C54.861 60.588 54.945 60.42 54.945 60.212C54.945 60.084 54.909 59.98 54.837 59.9C54.773 59.812 54.681 59.74 54.561 59.684C54.449 59.62 54.325 59.568 54.189 59.528L53.121 59.228C52.569 59.068 52.149 58.824 51.861 58.496C51.581 58.168 51.441 57.78 51.441 57.332C51.441 56.932 51.541 56.584 51.741 56.288C51.949 55.984 52.233 55.748 52.593 55.58C52.961 55.412 53.381 55.328 53.853 55.328C54.469 55.328 55.013 55.476 55.485 55.772C55.957 56.068 56.293 56.484 56.493 57.02L55.293 57.584C55.181 57.288 54.993 57.052 54.729 56.876C54.465 56.7 54.169 56.612 53.841 56.612C53.577 56.612 53.369 56.672 53.217 56.792C53.065 56.912 52.989 57.068 52.989 57.26C52.989 57.38 53.021 57.484 53.085 57.572C53.149 57.66 53.237 57.732 53.349 57.788C53.469 57.844 53.605 57.896 53.757 57.944L54.801 58.256C55.337 58.416 55.749 58.656 56.037 58.976C56.333 59.296 56.481 59.688 56.481 60.152C56.481 60.544 56.377 60.892 56.169 61.196C55.961 61.492 55.673 61.724 55.305 61.892C54.937 62.06 54.505 62.144 54.009 62.144ZM60.017 62.144C59.513 62.144 59.073 62.032 58.697 61.808C58.329 61.584 58.045 61.272 57.845 60.872C57.653 60.472 57.557 60.004 57.557 59.468V55.472H59.129V59.336C59.129 59.608 59.181 59.848 59.285 60.056C59.397 60.256 59.553 60.416 59.753 60.536C59.961 60.648 60.193 60.704 60.449 60.704C60.705 60.704 60.933 60.648 61.133 60.536C61.333 60.416 61.489 60.252 61.601 60.044C61.713 59.836 61.769 59.588 61.769 59.3V55.472H63.341V62H61.853V60.716L61.985 60.944C61.833 61.344 61.581 61.644 61.229 61.844C60.885 62.044 60.481 62.144 60.017 62.144ZM68.3663 62.144C67.8943 62.144 67.4583 62.052 67.0583 61.868C66.6663 61.676 66.3543 61.404 66.1223 61.052L66.2783 60.74V62H64.8023V52.916H66.3743V56.768L66.1343 56.444C66.3583 56.092 66.6623 55.82 67.0463 55.628C67.4303 55.428 67.8743 55.328 68.3783 55.328C68.9943 55.328 69.5503 55.48 70.0463 55.784C70.5423 56.088 70.9343 56.496 71.2223 57.008C71.5183 57.52 71.6663 58.096 71.6663 58.736C71.6663 59.368 71.5223 59.944 71.2343 60.464C70.9463 60.984 70.5543 61.396 70.0583 61.7C69.5623 61.996 68.9983 62.144 68.3663 62.144ZM68.1863 60.704C68.5463 60.704 68.8663 60.62 69.1463 60.452C69.4263 60.284 69.6423 60.052 69.7943 59.756C69.9543 59.46 70.0343 59.12 70.0343 58.736C70.0343 58.352 69.9543 58.016 69.7943 57.728C69.6423 57.432 69.4263 57.2 69.1463 57.032C68.8663 56.856 68.5463 56.768 68.1863 56.768C67.8423 56.768 67.5303 56.852 67.2503 57.02C66.9783 57.188 66.7623 57.424 66.6023 57.728C66.4503 58.024 66.3743 58.36 66.3743 58.736C66.3743 59.12 66.4503 59.46 66.6023 59.756C66.7623 60.052 66.9783 60.284 67.2503 60.452C67.5303 60.62 67.8423 60.704 68.1863 60.704ZM75.3488 62.144C74.6528 62.144 74.0448 61.98 73.5248 61.652C73.0128 61.316 72.6608 60.864 72.4688 60.296L73.6448 59.732C73.8128 60.1 74.0448 60.388 74.3408 60.596C74.6448 60.804 74.9808 60.908 75.3488 60.908C75.6368 60.908 75.8648 60.844 76.0328 60.716C76.2008 60.588 76.2848 60.42 76.2848 60.212C76.2848 60.084 76.2488 59.98 76.1768 59.9C76.1128 59.812 76.0208 59.74 75.9008 59.684C75.7888 59.62 75.6648 59.568 75.5288 59.528L74.4608 59.228C73.9088 59.068 73.4888 58.824 73.2008 58.496C72.9208 58.168 72.7808 57.78 72.7808 57.332C72.7808 56.932 72.8808 56.584 73.0808 56.288C73.2888 55.984 73.5728 55.748 73.9328 55.58C74.3008 55.412 74.7208 55.328 75.1928 55.328C75.8088 55.328 76.3528 55.476 76.8248 55.772C77.2968 56.068 77.6328 56.484 77.8328 57.02L76.6328 57.584C76.5208 57.288 76.3328 57.052 76.0688 56.876C75.8048 56.7 75.5088 56.612 75.1808 56.612C74.9168 56.612 74.7088 56.672 74.5568 56.792C74.4048 56.912 74.3288 57.068 74.3288 57.26C74.3288 57.38 74.3608 57.484 74.4248 57.572C74.4888 57.66 74.5768 57.732 74.6888 57.788C74.8088 57.844 74.9448 57.896 75.0968 57.944L76.1408 58.256C76.6768 58.416 77.0888 58.656 77.3768 58.976C77.6728 59.296 77.8208 59.688 77.8208 60.152C77.8208 60.544 77.7168 60.892 77.5088 61.196C77.3008 61.492 77.0128 61.724 76.6448 61.892C76.2768 62.06 75.8448 62.144 75.3488 62.144ZM82.0049 62.072C81.2689 62.072 80.6969 61.872 80.2889 61.472C79.8889 61.064 79.6889 60.492 79.6889 59.756V56.876H78.5609V55.472H78.6809C79.0009 55.472 79.2489 55.388 79.4249 55.22C79.6009 55.052 79.6889 54.808 79.6889 54.488V53.984H81.2609V55.472H82.7609V56.876H81.2609V59.672C81.2609 59.888 81.2969 60.072 81.3689 60.224C81.4489 60.376 81.5689 60.492 81.7289 60.572C81.8969 60.652 82.1089 60.692 82.3649 60.692C82.4209 60.692 82.4849 60.688 82.5569 60.68C82.6369 60.672 82.7129 60.664 82.7849 60.656V62C82.6729 62.016 82.5449 62.032 82.4009 62.048C82.2569 62.064 82.1249 62.072 82.0049 62.072ZM85.9425 62.144C85.4865 62.144 85.0905 62.068 84.7545 61.916C84.4185 61.764 84.1585 61.548 83.9745 61.268C83.7905 60.98 83.6985 60.648 83.6985 60.272C83.6985 59.912 83.7785 59.592 83.9385 59.312C84.0985 59.024 84.3465 58.784 84.6825 58.592C85.0185 58.4 85.4425 58.264 85.9545 58.184L88.0905 57.836V59.036L86.2545 59.348C85.9425 59.404 85.7105 59.504 85.5585 59.648C85.4065 59.792 85.3305 59.98 85.3305 60.212C85.3305 60.436 85.4145 60.616 85.5825 60.752C85.7585 60.88 85.9745 60.944 86.2305 60.944C86.5585 60.944 86.8465 60.876 87.0945 60.74C87.3505 60.596 87.5465 60.4 87.6825 60.152C87.8265 59.904 87.8985 59.632 87.8985 59.336V57.656C87.8985 57.376 87.7865 57.144 87.5625 56.96C87.3465 56.768 87.0585 56.672 86.6985 56.672C86.3625 56.672 86.0625 56.764 85.7985 56.948C85.5425 57.124 85.3545 57.36 85.2345 57.656L83.9505 57.032C84.0785 56.688 84.2785 56.392 84.5505 56.144C84.8305 55.888 85.1585 55.688 85.5345 55.544C85.9105 55.4 86.3185 55.328 86.7585 55.328C87.2945 55.328 87.7665 55.428 88.1745 55.628C88.5825 55.82 88.8985 56.092 89.1225 56.444C89.3545 56.788 89.4705 57.192 89.4705 57.656V62H87.9825V60.884L88.3185 60.86C88.1505 61.14 87.9505 61.376 87.7185 61.568C87.4865 61.752 87.2225 61.896 86.9265 62C86.6305 62.096 86.3025 62.144 85.9425 62.144ZM93.4074 62.144C92.7114 62.144 92.1034 61.98 91.5834 61.652C91.0714 61.316 90.7194 60.864 90.5274 60.296L91.7034 59.732C91.8714 60.1 92.1034 60.388 92.3994 60.596C92.7034 60.804 93.0394 60.908 93.4074 60.908C93.6954 60.908 93.9234 60.844 94.0914 60.716C94.2594 60.588 94.3434 60.42 94.3434 60.212C94.3434 60.084 94.3074 59.98 94.2354 59.9C94.1714 59.812 94.0794 59.74 93.9594 59.684C93.8474 59.62 93.7234 59.568 93.5874 59.528L92.5194 59.228C91.9674 59.068 91.5474 58.824 91.2594 58.496C90.9794 58.168 90.8394 57.78 90.8394 57.332C90.8394 56.932 90.9394 56.584 91.1394 56.288C91.3474 55.984 91.6314 55.748 91.9914 55.58C92.3594 55.412 92.7794 55.328 93.2514 55.328C93.8674 55.328 94.4114 55.476 94.8834 55.772C95.3554 56.068 95.6914 56.484 95.8914 57.02L94.6914 57.584C94.5794 57.288 94.3914 57.052 94.1274 56.876C93.8634 56.7 93.5674 56.612 93.2394 56.612C92.9754 56.612 92.7674 56.672 92.6154 56.792C92.4634 56.912 92.3874 57.068 92.3874 57.26C92.3874 57.38 92.4194 57.484 92.4834 57.572C92.5474 57.66 92.6354 57.732 92.7474 57.788C92.8674 57.844 93.0034 57.896 93.1554 57.944L94.1994 58.256C94.7354 58.416 95.1474 58.656 95.4354 58.976C95.7314 59.296 95.8794 59.688 95.8794 60.152C95.8794 60.544 95.7754 60.892 95.5674 61.196C95.3594 61.492 95.0714 61.724 94.7034 61.892C94.3354 62.06 93.9034 62.144 93.4074 62.144ZM97.0875 62V52.916H98.6595V58.868L98.0595 58.688L101.131 55.472H103.087L100.675 58.1L103.135 62H101.335L99.1995 58.616L100.135 58.424L98.1675 60.536L98.6595 59.576V62H97.0875ZM106.497 62.144C105.801 62.144 105.193 61.98 104.673 61.652C104.161 61.316 103.809 60.864 103.617 60.296L104.793 59.732C104.961 60.1 105.193 60.388 105.489 60.596C105.793 60.804 106.129 60.908 106.497 60.908C106.785 60.908 107.013 60.844 107.181 60.716C107.349 60.588 107.433 60.42 107.433 60.212C107.433 60.084 107.397 59.98 107.325 59.9C107.261 59.812 107.169 59.74 107.049 59.684C106.937 59.62 106.813 59.568 106.677 59.528L105.609 59.228C105.057 59.068 104.637 58.824 104.349 58.496C104.069 58.168 103.929 57.78 103.929 57.332C103.929 56.932 104.029 56.584 104.229 56.288C104.437 55.984 104.721 55.748 105.081 55.58C105.449 55.412 105.869 55.328 106.341 55.328C106.957 55.328 107.501 55.476 107.973 55.772C108.445 56.068 108.781 56.484 108.981 57.02L107.781 57.584C107.669 57.288 107.481 57.052 107.217 56.876C106.953 56.7 106.657 56.612 106.329 56.612C106.065 56.612 105.857 56.672 105.705 56.792C105.553 56.912 105.477 57.068 105.477 57.26C105.477 57.38 105.509 57.484 105.573 57.572C105.637 57.66 105.725 57.732 105.837 57.788C105.957 57.844 106.093 57.896 106.245 57.944L107.289 58.256C107.825 58.416 108.237 58.656 108.525 58.976C108.821 59.296 108.969 59.688 108.969 60.152C108.969 60.544 108.865 60.892 108.657 61.196C108.449 61.492 108.161 61.724 107.793 61.892C107.425 62.06 106.993 62.144 106.497 62.144Z" fill="#828FA3"/>
</g>
<defs>
<clipPath id="clip0_1520_3983">
<rect width="248" height="42" fill="white" transform="translate(16 23)"/>
</clipPath>
</defs>
</svg>
