<svg width="17" height="17" viewBox="0 0 17 17" fill="none" xmlns="http://www.w3.org/2000/svg">
<path d="M8.3045 1.6084C4.43804 1.6084 1.30298 4.82472 1.30298 8.78809C1.30298 11.9607 3.30967 14.6487 6.09152 15.5989C6.13054 15.6074 6.17037 15.6116 6.2103 15.6114C6.46973 15.6114 6.56975 15.4208 6.56975 15.2551C6.56975 15.0832 6.5635 14.6331 6.56037 14.033C6.32877 14.0873 6.09184 14.1156 5.85397 14.1174C4.5068 14.1174 4.20048 13.0703 4.20048 13.0703C3.88166 12.242 3.42219 12.02 3.42219 12.02C2.81268 11.5918 3.41906 11.5793 3.46595 11.5793H3.46907C4.17235 11.6418 4.54118 12.3232 4.54118 12.3232C4.89126 12.9359 5.36011 13.1078 5.77895 13.1078C6.0559 13.1022 6.32856 13.0383 6.57913 12.9202C6.64164 12.4576 6.82293 12.1419 7.02297 11.9607C5.46951 11.7794 3.83478 11.1636 3.83478 8.413C3.83478 7.62846 4.10671 6.98769 4.55369 6.48759C4.4818 6.3063 4.24112 5.57489 4.62245 4.58717C4.6736 4.57493 4.72617 4.56967 4.77873 4.57154C5.03191 4.57154 5.60391 4.66844 6.54787 5.32483C7.69485 5.00392 8.9079 5.00392 10.0549 5.32483C10.9988 4.66844 11.5708 4.57154 11.824 4.57154C11.8766 4.56967 11.9292 4.57493 11.9803 4.58717C12.3616 5.57489 12.121 6.3063 12.0491 6.48759C12.496 6.99082 12.768 7.63158 12.768 8.413C12.768 11.1699 11.1301 11.7762 9.5704 11.9544C9.82046 12.1763 10.0455 12.6139 10.0455 13.2828C10.0455 14.2424 10.0361 15.0176 10.0361 15.252C10.0361 15.4208 10.133 15.6114 10.3925 15.6114C10.4345 15.6116 10.4764 15.6074 10.5175 15.5989C13.3025 14.6487 15.306 11.9575 15.306 8.78809C15.306 4.82472 12.171 1.6084 8.3045 1.6084Z" fill="black"/>
</svg>
